<?xml version="1.0" standalone="no"?>
<!DOCTYPE svg PUBLIC "-//W3C//DTD SVG 20010904//EN"
 "http://www.w3.org/TR/2001/REC-SVG-20010904/DTD/svg10.dtd">
<svg version="1.0" xmlns="http://www.w3.org/2000/svg"
 width="455.000000pt" height="115.000000pt" viewBox="0 0 455.000000 115.000000"
 preserveAspectRatio="xMidYMid meet">

<g transform="translate(0.000000,115.000000) scale(0.100000,-0.100000)"
fill="#000000" stroke="none">
<path d="M3658 1109 c-25 -14 -24 -65 1 -79 27 -14 47 -13 65 6 44 44 -12 105
-66 73z"/>
<path d="M2770 1101 c0 -6 -15 -11 -33 -11 -18 0 -42 -6 -53 -14 -11 -8 -168
-213 -349 -455 -314 -422 -330 -441 -379 -463 -127 -57 -226 -10 -249 119 l-6
33 167 2 167 3 0 61 c0 50 -5 68 -28 103 -72 109 -259 107 -338 -2 -39 -53
-52 -108 -46 -185 6 -81 40 -148 95 -186 35 -25 53 -30 121 -34 75 -4 80 -6
70 -23 -9 -17 -5 -19 41 -19 28 0 59 4 70 10 10 5 186 234 391 510 205 275
374 499 375 497 1 -1 38 -117 82 -257 l80 -255 35 -3 35 -3 78 233 c42 128 80
226 83 218 2 -8 37 -112 76 -230 l71 -215 37 -3 c34 -3 36 -1 47 35 5 21 45
151 88 288 l78 250 -34 3 c-19 2 -38 0 -43 -5 -4 -4 -36 -106 -72 -227 -35
-120 -67 -215 -69 -210 -3 5 -38 107 -77 227 l-73 217 -29 0 c-36 0 -34 4
-124 -262 -42 -126 -67 -186 -71 -173 -3 11 -33 112 -67 225 l-62 205 -42 3
c-26 2 -43 -1 -43 -7z m-864 -620 c28 -17 64 -73 64 -100 0 -7 -42 -11 -131
-11 l-131 0 6 26 c22 86 120 129 192 85z"/>
<path d="M2005 1091 c-108 -27 -175 -124 -175 -255 0 -168 111 -281 260 -263
85 10 146 56 184 137 29 64 28 187 -1 253 -47 103 -156 155 -268 128z m121
-100 c43 -26 64 -76 64 -155 0 -113 -36 -166 -117 -173 -86 -9 -135 52 -135
166 0 70 13 114 40 145 36 39 99 47 148 17z"/>
<path d="M3913 939 c-48 -14 -83 -62 -83 -113 0 -54 23 -77 108 -109 105 -39
123 -67 76 -113 -21 -22 -32 -25 -67 -21 -23 2 -57 10 -75 18 -28 12 -34 12
-42 -1 -14 -22 -8 -33 31 -52 38 -20 123 -24 164 -8 48 18 75 58 75 110 0 61
-29 91 -116 120 -73 25 -99 51 -82 84 6 12 16 24 22 28 17 12 76 9 112 -4 26
-9 36 -9 49 2 14 12 14 14 0 30 -16 18 -88 41 -122 39 -10 0 -32 -5 -50 -10z"/>
<path d="M4295 936 c-84 -31 -132 -120 -122 -224 13 -122 93 -189 212 -179 61
4 125 30 132 52 1 6 -2 17 -7 25 -8 13 -14 13 -42 1 -74 -29 -108 -33 -146
-14 -44 22 -69 56 -78 106 l-6 37 147 0 148 0 -6 51 c-7 60 -38 114 -78 134
-43 23 -109 27 -154 11z m126 -59 c21 -16 39 -51 39 -76 0 -20 -6 -21 -105
-21 -89 0 -105 2 -105 16 0 23 19 57 44 76 25 21 103 24 127 5z"/>
<path d="M3650 735 l0 -205 35 0 35 0 0 205 0 205 -35 0 -35 0 0 -205z"/>
<path d="M973 734 c-15 -24 -15 -29 -2 -53 29 -51 109 -33 109 24 0 56 -76 76
-107 29z"/>
<path d="M30 410 l0 -340 45 0 45 0 0 129 0 129 103 4 c173 6 247 62 255 193
5 82 -10 127 -59 169 -53 45 -103 56 -258 56 l-131 0 0 -340z m307 242 c40
-28 57 -71 50 -128 -9 -85 -70 -124 -192 -124 l-75 0 0 141 0 141 93 -4 c75
-3 99 -8 124 -26z"/>
<path d="M744 541 c-17 -10 -40 -30 -51 -45 -24 -30 -33 -25 -33 21 0 31 -2
33 -35 33 l-35 0 0 -240 0 -240 40 0 40 0 0 152 c0 143 1 153 25 194 28 48 69
67 131 62 35 -3 38 -1 46 31 7 25 6 36 -4 42 -23 15 -92 9 -124 -10z"/>
<path d="M1317 545 c-82 -29 -128 -101 -135 -211 -8 -120 40 -215 125 -250 51
-22 142 -18 193 9 55 28 71 51 49 72 -14 15 -20 14 -64 -9 -59 -32 -102 -33
-146 -3 -48 31 -71 85 -71 161 0 111 50 177 136 178 23 1 58 -6 76 -15 44 -22
57 -21 71 4 13 24 9 29 -56 59 -47 23 -123 25 -178 5z"/>
<path d="M980 310 l0 -240 40 0 40 0 0 240 0 240 -40 0 -40 0 0 -240z"/>
<path d="M2569 535 c-58 -19 -123 -86 -140 -147 -7 -23 -12 -76 -12 -115 0
-61 5 -82 29 -130 94 -183 360 -156 420 43 40 134 -7 284 -106 334 -53 27
-134 33 -191 15z m138 -95 c88 -53 97 -229 15 -301 -32 -28 -40 -31 -84 -27
-83 8 -118 61 -118 178 1 133 93 208 187 150z"/>
</g>
</svg>
