<svg xmlns="http://www.w3.org/2000/svg" xml:space="preserve" width="2048" height="2048" style="shape-rendering:geometricPrecision;text-rendering:geometricPrecision;image-rendering:optimizeQuality;fill-rule:evenodd;clip-rule:evenodd">
  <defs>
    <style>
      .fil0 {
        fill: none
      }

      .fil1 {
        fill: #212121;
        fill-rule: nonzero
      }
    </style>
  </defs>
  <g id="Layer_x0020_1">
    <g id="_393448456">
      <path id="_393448648" class="fil0" d="M0 0h2048v2048H0z" />
      <path id="_393449608" class="fil0" d="M255.999 255.999h1536v1536h-1536z" />
    </g>
    <path class="fil1" d="M1024 223.999c220.91 0 420.911 89.544 565.684 234.318 144.774 144.773 234.318 344.773 234.318 565.684 0 220.91-89.544 420.911-234.318 565.684-144.773 144.774-344.773 234.318-565.684 234.318-220.91 0-420.911-89.544-565.684-234.318-144.774-144.773-234.318-344.773-234.318-565.684 0-220.91 89.544-420.911 234.318-565.684C603.089 313.543 803.089 223.999 1024 223.999zm520.433 279.568C1411.246 370.379 1227.244 288 1024 288c-203.244 0-387.246 82.378-520.433 215.567C370.379 636.754 288 820.756 288 1024c0 203.244 82.378 387.246 215.567 520.433C636.754 1677.621 820.756 1760 1024 1760c203.244 0 387.246-82.378 520.433-215.567C1677.621 1411.246 1760 1227.244 1760 1024c0-203.244-82.378-387.246-215.567-520.433z" />
    <g id="_393449728">
      <path id="_393453064" class="fil1" d="M1404.06 1248.9v.002l-.125.25c-.417 43.21-18.262 82.116-46.773 110.082-28.493 27.948-67.623 45.047-110.658 44.701v.124h-.002l-.25-.125c-43.21-.417-82.118-18.261-110.085-46.773-28.001-28.546-45.116-67.777-44.701-110.912.417-43.21 18.262-82.118 46.773-110.084 28.55-28.003 67.779-45.115 110.913-44.7 43.21.416 82.116 18.26 110.082 46.773 27.948 28.495 45.047 67.625 44.701 110.66h.124zm-63.88.002h-.122v-.002l.126-.25c.246-25.544-9.88-48.768-26.45-65.661-16.606-16.93-39.613-27.527-65.082-27.772-25.544-.245-48.77 9.88-65.663 26.45-16.93 16.606-27.525 39.615-27.771 65.083-.246 25.544 9.881 48.77 26.45 65.661 16.553 16.875 39.465 27.455 64.834 27.768v-.122h.002l.25.126c25.543.247 48.766-9.88 65.658-26.45 16.875-16.552 27.455-39.463 27.768-64.83z" />
      <path id="_393454792" class="fil1" d="M1476.55 616.704c12.495-12.495 12.495-32.755 0-45.25-12.495-12.495-32.755-12.495-45.25 0l-859.843 859.843c-12.495 12.494-12.495 32.755 0 45.25 12.495 12.495 32.755 12.495 45.25 0l859.843-859.843z" />
      <path id="_393447040" class="fil1" d="M956.88 802.098c-.417 43.21-18.261 82.117-46.773 110.084-28.547 28.003-67.776 45.115-110.91 44.7-43.21-.417-82.117-18.261-110.084-46.773-28.003-28.55-45.116-67.776-44.701-110.912.417-43.21 18.26-82.117 46.773-110.084 28.55-28.003 67.776-45.115 110.913-44.7 43.21.417 82.117 18.261 110.082 46.773 28.003 28.547 45.114 67.778 44.7 110.912zm-91.522 64.583c16.93-16.607 27.525-39.616 27.77-65.084.246-25.543-9.88-48.769-26.449-65.66-16.605-16.93-39.614-27.527-65.082-27.772-25.545-.246-48.769 9.88-65.662 26.45-16.932 16.606-27.526 39.616-27.772 65.083-.245 25.544 9.881 48.768 26.451 65.661 16.606 16.931 39.617 27.526 65.084 27.771 25.543.246 48.767-9.88 65.66-26.45z" />
    </g>
  </g>
</svg>