<?xml version="1.0" encoding="UTF-8"?>
<!DOCTYPE svg PUBLIC "-//W3C//DTD SVG 1.1//EN" "http://www.w3.org/Graphics/SVG/1.1/DTD/svg11.dtd">
<!-- Creator: CorelDRAW -->
<svg xmlns="http://www.w3.org/2000/svg" xml:space="preserve" width="2048px" height="2048px" style="shape-rendering:geometricPrecision; text-rendering:geometricPrecision; image-rendering:optimizeQuality; fill-rule:evenodd; clip-rule:evenodd"
viewBox="0 0 2048 2048"
 xmlns:xlink="http://www.w3.org/1999/xlink">
 <defs>
  <style type="text/css">
   <![CDATA[
    .fil0 {fill:none}
    .fil1 {fill:#212121;fill-rule:nonzero}
   ]]>
  </style>
 </defs>
 <g id="Layer_x0020_1">
  <metadata id="CorelCorpID_0Corel-Layer"/>
  <g id="_393448456">
   <rect id="_393448648" class="fil0" width="2048" height="2048"/>
   <rect id="_393449608" class="fil0" x="255.999" y="255.999" width="1536" height="1536"/>
  </g>
  <path class="fil1" d="M1024 223.999c220.91,0 420.911,89.5442 565.684,234.318 144.774,144.773 234.318,344.773 234.318,565.684 0,220.91 -89.5442,420.911 -234.318,565.684 -144.773,144.774 -344.773,234.318 -565.684,234.318 -220.91,0 -420.911,-89.5442 -565.684,-234.318 -144.774,-144.773 -234.318,-344.773 -234.318,-565.684 0,-220.91 89.5442,-420.911 234.318,-565.684 144.773,-144.774 344.773,-234.318 565.684,-234.318zm520.433 279.568c-133.187,-133.188 -317.189,-215.567 -520.433,-215.567 -203.244,0 -387.246,82.3784 -520.433,215.567 -133.188,133.187 -215.567,317.189 -215.567,520.433 0,203.244 82.3784,387.246 215.567,520.433 133.187,133.188 317.189,215.567 520.433,215.567 203.244,0 387.246,-82.3784 520.433,-215.567 133.188,-133.187 215.567,-317.189 215.567,-520.433 0,-203.244 -82.3784,-387.246 -215.567,-520.433z"/>
  <g id="_393449728">
   <path id="_393453064" class="fil1" d="M1404.06 1248.9l0 0.00236221 -0.125197 0.250394c-0.416929,43.2095 -18.2622,82.115 -46.7729,110.081 -28.4929,27.9484 -67.6229,45.0473 -110.658,44.7012l0 0.124016 -0.00236221 0 -0.250394 -0.125197c-43.2095,-0.416929 -82.1174,-18.261 -110.084,-46.7729 -28.0016,-28.5461 -45.1158,-67.7764 -44.7012,-110.912 0.416929,-43.2107 18.2622,-82.1174 46.7729,-110.084 28.5496,-28.0028 67.7788,-45.1146 110.913,-44.7 43.2107,0.415748 82.1162,18.261 110.082,46.7729 27.9484,28.4953 45.0473,67.6252 44.7012,110.661l0.124016 0zm-63.88 0.00236221l-0.121654 0 0 -0.00236221 0.125197 -0.250394c0.246851,-25.5437 -9.87993,-48.7678 -26.4496,-65.6611 -16.6063,-16.9299 -39.613,-27.5268 -65.0823,-27.7713 -25.5437,-0.245669 -48.7689,9.87993 -65.6623,26.4496 -16.9299,16.6063 -27.5256,39.6154 -27.7713,65.0835 -0.245669,25.5437 9.88111,48.7689 26.4508,65.6611 16.552,16.8744 39.4642,27.4547 64.8331,27.7677l0 -0.121654 0.00236221 0 0.250394 0.125197c25.5425,0.246851 48.7654,-9.87993 65.6575,-26.4496 16.8744,-16.552 27.4547,-39.463 27.7677,-64.8308z"/>
   <path id="_393454792" class="fil1" d="M1476.55 616.704c12.4949,-12.4949 12.4949,-32.7555 0,-45.2504 -12.4949,-12.4949 -32.7555,-12.4949 -45.2504,0l-859.843 859.843c-12.4949,12.4949 -12.4949,32.7555 0,45.2504 12.4949,12.4949 32.7555,12.4949 45.2504,0l859.843 -859.843z"/>
   <path id="_393447040" class="fil1" d="M956.88 802.098c-0.416929,43.2095 -18.261,82.1174 -46.7729,110.084 -28.5473,28.0028 -67.7764,45.1146 -110.91,44.7 -43.2107,-0.416929 -82.1174,-18.261 -110.084,-46.7729 -28.0028,-28.5496 -45.1158,-67.7764 -44.7012,-110.912 0.416929,-43.2107 18.261,-82.1174 46.7729,-110.084 28.5496,-28.0028 67.7764,-45.1146 110.913,-44.7 43.2107,0.416929 82.1174,18.261 110.082,46.7729 28.0028,28.5473 45.1146,67.7776 44.7,110.912zm-91.5225 64.5827c16.9311,-16.6063 27.5256,-39.6154 27.7713,-65.0835 0.245669,-25.5437 -9.87993,-48.7689 -26.4496,-65.6611 -16.6051,-16.9299 -39.6142,-27.5256 -65.0823,-27.7713 -25.5449,-0.245669 -48.7689,9.87993 -65.6623,26.4496 -16.9311,16.6063 -27.5256,39.6166 -27.7713,65.0835 -0.245669,25.5437 9.88111,48.7678 26.4508,65.6611 16.6063,16.9311 39.6166,27.5256 65.0835,27.7713 25.5437,0.245669 48.7678,-9.87993 65.6599,-26.4496z"/>
  </g>
 </g>
</svg>
